<svg width="32" height="32" viewBox="0 0 32 32" fill="none" xmlns="http://www.w3.org/2000/svg">
<path d="M31.8199 23.8172L30.7989 21.9658C23.2563 31.0038 7.93691 27.8613 7.93691 27.8613L1.40908 24.3533L0.0920036 26.9984V26.9982C-0.0103674 27.2066 -0.0280478 27.4477 0.0426726 27.6693C0.113394 27.8909 0.266844 28.0751 0.469843 28.1815L6.44279 31.3832C9.41748 32.0514 25.9352 33.7741 31.7076 25.5123C31.8767 25.2675 31.9765 24.98 31.9963 24.6809C32.0162 24.3821 31.9551 24.0832 31.82 23.8174L31.8199 23.8172Z" fill="#6FAE3D"/>
<path d="M30.0042 20.3821L19.4871 1.51246C19.3079 1.14597 18.9696 0.887718 18.5749 0.816525L13.8678 0.0195138C13.5956 -0.0293656 13.3149 0.0141572 13.0691 0.143611C12.8233 0.273061 12.6255 0.481305 12.5064 0.736412L2.224 22.6618L8.39141 26.0063C24.4428 28.3831 30.0044 20.3821 30.0044 20.3821L30.0042 20.3821ZM23.939 16.9019L23.9388 16.9021C24.0045 16.7249 24.1706 16.6077 24.3557 16.6077C24.541 16.6077 24.7071 16.7249 24.7728 16.9021C25.1847 17.7234 25.651 19.0354 24.8988 19.7141V19.7139C24.7506 19.8529 24.5567 19.9299 24.3557 19.9299C24.1549 19.9299 23.961 19.8529 23.8128 19.7139C23.0574 19.0528 23.5271 17.7407 23.9388 16.9159L23.939 16.9019ZM19.5551 11.1281C19.6208 10.9509 19.7867 10.8337 19.972 10.8337C20.1573 10.8337 20.3232 10.9509 20.3889 11.1281C20.8008 11.9495 21.2671 13.2614 20.5149 13.9402C20.3667 14.079 20.173 14.1562 19.972 14.1562C19.771 14.1562 19.5774 14.079 19.4292 13.9402C18.677 13.2511 19.1432 11.939 19.5551 11.1281ZM15.5491 18.3252C15.6148 18.148 15.7806 18.0308 15.966 18.0308C16.1513 18.0308 16.3174 18.148 16.3829 18.3252C16.7948 19.1465 17.261 20.4585 16.5088 21.1372C16.3608 21.276 16.167 21.3532 15.966 21.3532C15.7649 21.3532 15.5713 21.276 15.4231 21.1372C14.6676 20.4621 15.1372 19.1327 15.5491 18.3252Z" fill="#FF1A41"/>
</svg>
