<svg width="32" height="36" viewBox="0 0 32 36" fill="none" xmlns="http://www.w3.org/2000/svg">
<path d="M29.8528 11.1008C29.8985 10.9472 29.945 10.7912 29.9907 10.6376C30.0997 10.2676 29.9447 9.89137 29.5774 9.74608C28.0637 9.14066 26.4907 8.74777 24.9841 8.11568C25.1363 7.6497 25.2733 7.18881 25.4089 6.74607C25.5156 6.6148 25.5628 6.43512 25.4944 6.20774C25.1789 5.16572 22.9925 4.76891 22.121 4.45214C20.5939 3.89772 19.0331 3.41346 17.5209 2.81125C17.177 2.67456 16.7488 2.87696 16.6294 3.22451C16.4798 3.65419 16.3218 4.07809 16.1606 4.50347C14.3293 3.75502 12.4954 3.01362 10.6434 2.32149C10.2914 2.19246 9.87857 2.38187 9.75189 2.73474C6.80652 10.8284 3.80357 18.9702 0.372029 26.8724C0.221022 27.219 0.450571 27.6385 0.785291 27.7639C7.34781 30.2385 13.797 33.0443 20.4238 35.3509C20.7798 35.476 21.1822 35.2934 21.3153 34.9376C24.2815 27.0485 27.3931 19.1622 29.8569 11.097L29.8528 11.1008ZM16.7457 6.79966C18.8239 7.62263 20.9055 8.4362 22.9912 9.24595C22.9006 9.36978 22.7799 9.46664 22.6006 9.51273C22.3162 9.58418 21.6426 9.20684 21.3804 9.11605C19.7485 8.54984 18.1695 7.85392 16.6452 7.04497C16.6776 6.9637 16.7101 6.88242 16.7425 6.80115L16.7457 6.79966ZM17.693 4.36775C18.6863 4.73716 19.6998 5.06604 20.6959 5.4205C21.4659 5.69474 22.235 5.97132 22.998 6.26433C23.2873 6.37569 23.5846 6.53789 23.8812 6.61467C23.9149 6.62436 23.9463 6.6332 23.9736 6.64587C23.8743 6.9529 23.7672 7.25969 23.6586 7.56327C22.5385 7.09681 21.4135 6.63653 20.2874 6.18649C19.3379 5.80652 18.391 5.4195 17.4441 5.03249C17.5281 4.81041 17.6113 4.59069 17.693 4.36775ZM24.6876 19.6293C23.0729 23.8531 21.4574 28.0791 19.8426 32.3028C19.7098 32.6507 19.3052 32.8539 18.9511 32.7161C17.1888 32.0408 15.428 31.3688 13.6657 30.6935C11.1981 29.7491 8.73052 28.8047 6.26295 27.8603C5.39896 27.5303 3.27061 27.2001 3.34565 26.0004C3.40921 24.9483 4.08984 23.7523 4.4709 22.7925C4.92203 21.6562 5.39577 20.5308 5.85629 19.3978C7.74074 14.7433 9.4984 10.0715 11.135 5.32339C11.2544 4.97584 11.6843 4.76873 12.0265 4.91012C13.1679 5.37643 14.312 5.8357 15.4577 6.29027C15.346 6.56609 15.2342 6.84191 15.1216 7.12008C15.0199 7.37563 15.1122 7.78479 15.3698 7.92447C17.5717 9.13618 20.1964 10.596 22.7096 10.9875C23.3118 11.0804 23.6475 10.9559 23.9795 10.4281C24.1113 10.2209 24.2278 9.99737 24.3382 9.76895C25.3169 10.149 26.2942 10.5258 27.2729 10.9059C27.62 11.0411 27.824 11.4433 27.6862 11.7974C26.6893 14.4081 25.6901 17.018 24.6909 19.6279L24.6876 19.6293Z" fill="black"/>
<path d="M12.0039 12.7844C15.1901 14.0268 18.4187 15.1463 21.6905 16.1406C22.5432 16.3999 23.0293 15.0954 22.1697 14.8335C18.8978 13.8392 15.6692 12.7197 12.483 11.4772C11.6489 11.1529 11.1706 12.4576 12.0039 12.7844Z" fill="black"/>
<path d="M20.1783 20.6653C16.8856 19.5755 13.664 18.2989 10.5183 16.837C9.7063 16.4595 9.23187 17.7684 10.0392 18.1441C13.1849 19.606 16.4065 20.8827 19.6992 21.9725C20.5464 22.2537 21.0303 20.9483 20.1783 20.6653Z" fill="black"/>
<path d="M17.476 25.8959C14.8478 24.6637 12.2111 23.447 9.56438 22.2506C8.74896 21.8825 8.27219 23.1905 9.08526 23.5577C11.732 24.7541 14.3663 25.97 16.9969 27.2031C17.808 27.5829 18.2824 26.274 17.476 25.8959Z" fill="black"/>
</svg>
