<svg width="24" height="27" viewBox="0 0 24 27" fill="none" xmlns="http://www.w3.org/2000/svg">
<path d="M17.1765 3.6168C15.0982 1.72579 12.2174 0.563798 9.38522 0.810417C6.05554 1.10285 3.49613 3.4917 2.05859 6.37345C0.0578432 10.7039 0.261176 16.2318 3.89687 19.6527C5.8939 21.5309 8.58769 22.3302 11.2815 22.4184C12.3781 22.4546 13.7017 21.9279 14.7563 22.1929C14.8985 22.2287 15.0322 22.2837 15.1594 22.3539C15.1983 22.3885 15.2412 22.4149 15.2866 22.4343C16.1274 22.9886 16.6987 24.2121 17.3028 24.9068C17.8254 25.5072 18.477 26.1123 19.3203 26.0943C20.5233 26.0681 21.8283 24.8801 22.5949 24.0528C24.9375 21.5259 20.4015 20.0488 20.5868 17.4633C20.6822 16.1403 21.2498 14.9006 21.3109 13.5525C21.3681 12.2839 21.2302 11.0246 20.9059 9.79617C20.2821 7.43309 18.9874 5.26217 17.1778 3.61843L17.1765 3.6168ZM13.7545 16.4445C14.0041 16.0129 14.1959 15.5355 14.3318 15.0618C14.6751 15.0456 15.0194 14.9799 15.3497 14.8685C15.9588 16.2809 16.9255 17.4793 18.1151 18.4174C17.3854 19.2935 16.5634 20.0577 15.6399 20.7247C15.2823 19.9025 14.9096 19.0841 14.5613 18.2574C14.3115 17.666 14.0872 17.0169 13.7545 16.4445ZM13.4538 13.7912C13.0054 13.6311 12.73 13.3072 12.6258 12.8205C13.1555 12.3027 13.4182 12.2475 13.4139 12.6549C13.5574 12.9532 13.556 13.3712 13.4857 13.803C13.4747 13.7985 13.4632 13.7969 13.451 13.7908L13.4538 13.7912ZM17.0912 22.7542C18.2739 21.9426 19.291 20.9594 20.1394 19.8068C20.1903 19.881 20.244 19.9555 20.2981 20.0271C19.5338 21.2671 18.5686 22.2955 17.3628 23.1272C17.2951 23.0274 17.2294 22.9338 17.1691 22.8539C17.1433 22.8197 17.1187 22.7872 17.0912 22.7542ZM19.2031 19.1635C18.3986 20.2419 17.4416 21.1491 16.3204 21.9066C16.2606 21.8545 16.2021 21.8041 16.1431 21.7565C17.2362 20.9922 18.2046 20.0969 19.0501 19.0693C19.1013 19.0997 19.152 19.133 19.2031 19.1635ZM18.3225 24.4179C18.2139 24.3081 18.1115 24.186 18.011 24.0598L18.0143 24.0573C19.2401 23.2182 20.2595 22.177 21.0614 20.9393C21.1356 21.024 21.2127 21.109 21.2852 21.1949C20.7366 22.497 19.4238 23.5732 18.3209 24.4192L18.3225 24.4179ZM20.9403 24.0365C20.5556 24.3399 20.0583 24.7719 19.5545 24.8941C20.4851 24.1451 21.4426 23.2555 22.0379 22.2353C22.2973 22.9782 21.5184 23.5793 20.9403 24.0365ZM19.6683 16.2745C19.5168 16.8698 19.4331 17.4396 19.4755 18.0036C19.426 17.9719 19.3752 17.9386 19.3257 17.9069C19.2782 17.861 19.2238 17.8228 19.1653 17.7928C17.9442 16.9247 16.924 15.7435 16.3611 14.3551C16.4808 14.2698 16.5965 14.1824 16.7035 14.0837C17.4079 13.4415 18.4041 11.479 16.8658 11.0986C16.1124 10.9106 15.4006 11.5531 15.1203 12.1946C14.8952 12.7126 14.891 13.2658 15.001 13.8042C14.8571 13.8541 14.7078 13.8902 14.556 13.9127C14.5588 13.8825 14.5628 13.8539 14.5668 13.8253C14.6656 12.6558 14.4498 10.2403 12.6482 10.9234C11.3126 11.431 11.1965 13.2378 12.0721 14.1904C12.391 14.5379 12.7751 14.7721 13.1899 14.9115C13.1167 15.1126 13.0406 15.2929 12.9738 15.4381C12.9657 15.4544 12.9559 15.472 12.9478 15.4884C11.904 14.6755 10.1775 14.7571 9.75967 16.2187C9.34064 17.689 11.0682 18.4892 12.2448 17.9405C12.5268 17.8093 12.7809 17.6276 13.0108 17.4105C13.2486 17.9215 13.4199 18.4802 13.5924 18.8846C13.9113 19.6285 14.2429 20.3654 14.5668 21.1056C14.1682 21.0588 13.7253 21.0685 13.2161 21.136C10.7764 21.4621 8.23344 21.1807 6.08578 19.8921C1.54338 17.1638 1.05219 11.265 3.10762 6.81395C4.36882 4.28796 6.60476 2.20233 9.51898 1.94236C11.9565 1.72528 14.4163 2.73974 16.2449 4.31034C19.7592 7.32673 20.7709 11.9268 19.6679 16.2774L19.6683 16.2745ZM16.0372 13.0087C16.0129 12.5973 16.1134 12.5136 16.3397 12.7725C16.2321 12.8231 16.134 12.91 16.0372 13.0087ZM12.3432 16.4286C12.0775 16.7879 11.7132 16.9761 11.2503 16.9933C10.6964 16.2837 10.9097 16.0074 11.8883 16.1583C12.0567 16.2152 12.2069 16.309 12.3432 16.4286Z" fill="black"/>
</svg>
