<svg width="34" height="30" viewBox="0 0 34 30" fill="none" xmlns="http://www.w3.org/2000/svg">
<path d="M2.0734 21.3196C2.17851 21.4027 2.31296 21.4565 2.48406 21.4589C12.005 21.5347 21.4869 21.2193 31.003 20.9945C31.3623 20.9871 31.6947 20.6889 31.6825 20.3149C31.5016 14.6732 31.289 9.04374 30.8416 3.41427C30.8123 3.03049 30.5532 2.75671 30.1621 2.73471C21.0078 2.20917 11.9464 2.67361 2.81162 3.23094C2.4474 3.25294 2.12718 3.52426 2.13207 3.91047C2.18585 9.52773 1.9463 15.1621 1.80697 20.7769C1.79964 21.0336 1.91452 21.212 2.07585 21.3196H2.0734ZM29.529 4.06203C29.925 9.25395 30.1303 14.4483 30.299 19.65C21.2522 19.8676 12.2348 20.1511 3.18318 20.0998C3.32006 14.9225 3.52294 9.73061 3.49361 4.55091C12.1884 4.02536 20.8196 3.60737 29.529 4.06203Z" fill="black"/>
<path d="M0.875319 2.29218C11.2201 1.41709 21.6063 1.15798 31.9829 1.51976C32.858 1.54909 32.858 0.189997 31.9829 0.15822C21.6063 -0.203553 11.2225 0.0555482 0.875319 0.930646C0.00999783 1.00398 0.000220198 2.36552 0.875319 2.29218Z" fill="black"/>
<path d="M32.8703 22.3852C27.4486 22.1627 22.0269 22.5612 16.6052 22.6614C11.2886 22.7592 5.96711 22.8594 0.655407 22.5465C-0.219691 22.4952 -0.217246 23.8567 0.655407 23.908C5.29001 24.1818 9.92704 24.1403 14.5665 24.0596C13.8137 25.5287 13.0632 27.0002 12.3103 28.4693C11.9119 29.2466 13.0852 29.9384 13.4861 29.1562C14.3588 27.4476 15.2339 25.7389 16.1065 24.0327C16.2727 24.0303 16.439 24.0278 16.6052 24.0229C17.0916 24.0132 17.578 24.0009 18.0645 23.9887C18.6829 25.7071 19.3014 27.4256 19.9222 29.1415C20.218 29.9604 21.5331 29.606 21.2349 28.7797C20.6531 27.1689 20.0738 25.5556 19.492 23.9447C23.9506 23.798 28.4092 23.5609 32.8703 23.7443C33.7454 23.7809 33.7454 22.4194 32.8703 22.3827V22.3852Z" fill="black"/>
<path d="M9.15098 16.3988C10.9232 14.849 12.6318 13.2333 14.2891 11.5613C14.9809 12.7615 15.6727 13.9617 16.3644 15.1644C16.6064 15.5823 17.0953 15.5628 17.4326 15.3012C19.4835 13.7148 21.4855 12.0697 23.4459 10.3733C23.4459 10.4026 23.4459 10.432 23.4459 10.4613C23.4654 11.0602 23.4874 11.6615 23.507 12.2604C23.5363 13.133 24.8979 13.1379 24.8685 12.2604C24.8441 11.5613 24.8196 10.8622 24.7952 10.1631C24.7756 9.58131 24.8441 8.92133 24.6852 8.36156C24.6241 8.14645 24.4383 7.93134 24.211 7.88734C23.617 7.77001 23.0597 8.02178 22.4828 8.14155C21.7861 8.28333 21.0748 8.32488 20.3659 8.36888C19.4957 8.42266 19.4908 9.7842 20.3659 9.73042C20.9697 9.69131 21.5735 9.6522 22.1748 9.56665C22.2286 9.55931 22.2823 9.54954 22.3361 9.54221C20.6421 11.004 18.9139 12.4266 17.1515 13.8077C16.4402 12.5757 15.7313 11.3437 15.02 10.1117C14.8025 9.73531 14.2549 9.65953 13.9518 9.97486C12.1038 11.8742 10.1825 13.6952 8.18788 15.443C7.52789 16.0199 8.49343 16.9805 9.15098 16.4061V16.3988Z" fill="black"/>
</svg>
